<svg width="100%" height="100%" id="svg" viewBox="0 0 1440 690" xmlns="http://www.w3.org/2000/svg" class="transition duration-300 ease-in-out delay-150"><path d="M 0,700 C 0,700 0,233 0,233 C 122.64285714285717,271.32142857142856 245.28571428571433,309.64285714285717 382,319 C 518.7142857142857,328.35714285714283 669.5,308.75 770,268 C 870.5,227.25000000000003 920.7142857142858,165.35714285714286 1024,156 C 1127.2857142857142,146.64285714285714 1283.642857142857,189.82142857142856 1440,233 C 1440,233 1440,700 1440,700 Z" stroke="none" stroke-width="0" fill="#cef5e6" fill-opacity="0.53" class="transition-all duration-300 ease-in-out delay-150 path-0" transform="rotate(-180 720 350)"></path><path d="M 0,700 C 0,700 0,466 0,466 C 122.78571428571428,475.3928571428571 245.57142857142856,484.7857142857143 362,481 C 478.42857142857144,477.2142857142857 588.5000000000001,460.25 722,455 C 855.4999999999999,449.75 1012.4285714285716,456.2142857142857 1136,460 C 1259.5714285714284,463.7857142857143 1349.7857142857142,464.8928571428571 1440,466 C 1440,466 1440,700 1440,700 Z" stroke="none" stroke-width="0" fill="#cef5e6" fill-opacity="1" class="transition-all duration-300 ease-in-out delay-150 path-1" transform="rotate(-180 720 350)"></path></svg>